<svg width="43" height="43" viewBox="0 0 43 43" fill="none" xmlns="http://www.w3.org/2000/svg">
<g clip-path="url(#clip0_353_154)">
<path d="M34.3195 19.5324C34.2824 26.5528 30.0133 29.8791 26.9961 29.9996C26.9343 29.9996 26.8725 29.9996 26.8106 29.9996C24.7827 29.9996 23.3205 28.6364 23.1443 26.559C22.7517 21.9498 26.9559 19.7549 29.2342 19.2356V22.4722C28.1059 22.8957 26.0285 23.9963 26.2233 26.2962C26.2635 26.7816 26.4149 26.9238 26.8725 26.9083C28.3779 26.8465 31.2003 24.6176 31.2282 19.5138C31.2498 15.6929 29.6918 12.2862 26.8477 9.92137C24.2541 7.76361 20.7856 6.626 16.7978 6.57963C18.4145 6.017 20.1519 5.71096 21.9603 5.71096C24.1057 5.71096 26.1522 6.14066 28.0193 6.91968C28.2945 7.11752 28.5634 7.32773 28.8231 7.54413C32.3936 10.5149 34.3442 14.7686 34.3195 19.5293V19.5324Z" fill="#7A7575"/>
<path d="M25.8678 18.0671C21.9881 20.5865 18.0714 17.9125 16.5412 16.1473L19.3945 14.6233C20.3003 15.4178 22.2509 16.7316 24.1861 15.4765C24.5941 15.2107 24.6498 15.0097 24.421 14.614C23.6544 13.3157 20.359 11.8782 15.8456 14.2585C12.4668 16.0391 10.1947 19.0192 9.44965 22.6423C8.76955 25.9438 9.39709 29.5359 11.2334 33.0694C8.47587 30.5128 6.63343 26.9856 6.25011 23.0349C6.29648 22.6948 6.35212 22.3578 6.42322 22.0209C7.3599 17.4735 10.1916 13.7454 14.402 11.5258C20.6094 8.24895 25.5556 10.4438 27.0858 13.0498C27.1167 13.1024 27.1476 13.158 27.1754 13.2106C28.1306 15.0004 27.6175 16.9325 25.8678 18.0671Z" fill="#7A7575"/>
<path d="M37.2346 25.4863C36.2454 29.2794 33.8744 32.5222 30.6934 34.6398C30.3811 34.7572 30.0627 34.8593 29.7443 34.9551C25.2928 36.272 20.6712 35.5301 16.7267 32.8653C10.9118 28.9331 10.5162 23.5357 12.0927 20.9606C12.1237 20.908 12.1607 20.8555 12.1948 20.806C13.32 19.1181 15.2676 18.6606 17.0914 19.6684C21.1411 21.9034 20.631 26.6177 19.7964 28.8002L17.1069 27.0041C17.3789 25.8294 17.6201 23.4893 15.5983 22.3733C15.1717 22.1384 14.9708 22.1847 14.7297 22.5743C13.9445 23.8603 14.2289 27.4462 18.4578 30.3057C21.6234 32.4449 25.3206 33.0415 28.8664 31.9936C32.103 31.0353 34.978 28.7817 37.2346 25.4863Z" fill="#7A7575"/>
<path d="M21.9603 42.5412C10.3585 42.5412 0.920624 33.1034 0.920624 21.5015C0.920624 9.89974 10.3585 0.458771 21.9603 0.458771C33.5621 0.458771 43 9.89664 43 21.4985C43 33.1003 33.5621 42.5381 21.9603 42.5381V42.5412ZM21.9603 3.55011C12.0618 3.55011 4.01197 11.6031 4.01197 21.4985C4.01197 31.3938 12.0649 39.4468 21.9603 39.4468C31.8557 39.4468 39.9087 31.3938 39.9087 21.4985C39.9087 11.6031 31.8557 3.55011 21.9603 3.55011Z" fill="#7A7575"/>
</g>
<defs>
<clipPath id="clip0_353_154">
<rect width="43" height="43" fill="white"/>
</clipPath>
</defs>
</svg>
